<svg xmlns="http://www.w3.org/2000/svg" version="1.1" xmlns:xlink="http://www.w3.org/1999/xlink" xmlns:svgjs="http://svgjs.dev/svgjs" viewBox="0 0 800 800"><defs><filter id="bbburst-blur-1" x="-100%" y="-100%" width="400%" height="400%"><feGaussianBlur in="SourceGraphic" stdDeviation="1"></feGaussianBlur></filter><filter id="bbburst-blur-2" x="-100%" y="-100%" width="400%" height="400%"><feGaussianBlur in="SourceGraphic" stdDeviation="2"></feGaussianBlur></filter><filter id="bbburst-blur-3" x="-100%" y="-100%" width="400%" height="400%"><feGaussianBlur in="SourceGraphic" stdDeviation="4"></feGaussianBlur></filter><filter id="bbburst-blur-4" x="-100%" y="-100%" width="400%" height="400%"><feGaussianBlur in="SourceGraphic" stdDeviation="12"></feGaussianBlur></filter><symbol id="bbburst-shape-1" viewBox="0 0 194 167"><path d="m97 0 96.129 166.5H.871L97 0Z"></path></symbol><symbol id="bbburst-shape-4" viewBox="0 0 149 143"><path d="M71.647 2.781c.898-2.764 4.808-2.764 5.706 0l15.445 47.534a3 3 0 0 0 2.853 2.073h49.98c2.906 0 4.115 3.719 1.764 5.427L106.96 87.193a2.999 2.999 0 0 0-1.09 3.354l15.445 47.534c.898 2.764-2.266 5.062-4.617 3.354l-40.435-29.378a3 3 0 0 0-3.526 0l-40.435 29.378c-2.351 1.708-5.515-.59-4.617-3.354L43.13 90.547a3 3 0 0 0-1.09-3.354L1.605 57.815c-2.35-1.708-1.142-5.427 1.764-5.427h49.98a3 3 0 0 0 2.853-2.073L71.647 2.781Z"></path></symbol><symbol id="bbburst-shape-6" viewBox="0 0 133 116"><path d="M59.7487 10.2513c-13.6683-13.66839-35.8291-13.66839-49.4974 0-13.66839 13.6683-13.66839 35.8291 0 49.4974l49.4974-49.4974ZM66.5 66.5 41.7513 91.2487 66.5 115.997l24.7487-24.7483L66.5 66.5Zm56.249-6.7513c13.668-13.6683 13.668-35.8291 0-49.4974-13.669-13.66839-35.8294-13.66839-49.4977 0l49.4977 49.4974Zm-112.4977 0 31.5 31.5 49.4974-49.4974-31.5-31.5-49.4974 49.4974Zm80.9974 31.5 31.5003-31.5-49.4977-49.4974-31.5 31.5 49.4974 49.4974Z"></path></symbol><symbol id="bbburst-shape-8" viewBox="0 0 87 168"><path d="m12 12 31.2546 18.0749c16.4102 9.4902 20.014 31.6325 7.4603 45.8369L36.3296 92.1884c-12.5684 14.2206-8.9394 36.3916 7.5068 45.8636L75 156" stroke-width="14" stroke-linecap="round" stroke-linejoin="round"></path></symbol><symbol id="bbburst-shape-10" viewBox="0 0 145 145"><circle cx="72.5" cy="72.5" r="61.5" fill="none" stroke-width="22"></circle></symbol></defs><use xlink:href="#bbburst-shape-10" width="37.6130048074018" opacity="0.3942839968451456" transform="matrix(0.9661774349162251,-0.25787819655547367,0.25787819655547367,0.9661774349162251,122.59779135967021,241.83904994772575)" fill="none" stroke="#00a19d" filter="url(#bbburst-blur-2)"></use><use xlink:href="#bbburst-shape-8" width="37.384861617606546" opacity="0.38295302884252846" transform="matrix(0.9178417338118665,0.3969465350311385,-0.3969465350311385,0.9178417338118665,798.0212858462919,-81.14279082315142)" fill="none" stroke="#00a19d" filter="url(#bbburst-blur-2)"></use><use xlink:href="#bbburst-shape-1" width="46.28424960134393" opacity="0.14609606821736976" transform="matrix(1.2401862320583865,0.1563269324614977,-0.1563269324614977,1.2401862320583865,709.3323748439886,168.23751319050882)" fill="#ff5c58" filter="url(#bbburst-blur-3)"></use><use xlink:href="#bbburst-shape-6" width="12.201478818345217" opacity="0.8568465357112454" transform="matrix(0.9809362968260684,-0.19432956946681926,0.19432956946681926,0.9809362968260684,332.40837045754046,71.1795280582956)" fill="#ff5c58"></use><use xlink:href="#bbburst-shape-8" width="15.731303906956601" opacity="0.7484795007425388" transform="matrix(0.999666316896223,0.02583127683913782,-0.02583127683913782,0.999666316896223,514.141282295958,18.37150648753675)" fill="none" stroke="#00a19d" filter="url(#bbburst-blur-1)"></use><use xlink:href="#bbburst-shape-10" width="39.35953445659946" opacity="0.06180237299328384" transform="matrix(1.3999593601174478,-1.050054184325526,1.050054184325526,1.3999593601174478,-270.3885876720338,219.28459684167512)" fill="none" stroke="#ff5c58" filter="url(#bbburst-blur-4)"></use><use xlink:href="#bbburst-shape-10" width="12.634213687312718" opacity="0.8722178663851237" transform="matrix(0.9108054336556579,-0.4128358778295908,0.4128358778295908,0.9108054336556579,185.60905319760613,75.88853133524418)" fill="none" stroke="#00a19d"></use><use xlink:href="#bbburst-shape-4" width="23.726809065221925" opacity="0.3549244160915762" transform="matrix(0.8583614422731671,0.5130454506364212,-0.5130454506364212,0.8583614422731671,885.228785478968,43.80534860327754)" fill="#00a19d" filter="url(#bbburst-blur-2)"></use><use xlink:href="#bbburst-shape-10" width="19.445501483381598" opacity="0.5741951487129351" transform="matrix(0.7694902412062061,-0.6386585697290961,0.6386585697290961,0.7694902412062061,291.92349448165277,211.2450723336765)" fill="none" stroke="#00a19d" filter="url(#bbburst-blur-1)"></use><use xlink:href="#bbburst-shape-4" width="34.950928855520914" opacity="0.4208002043372313" transform="matrix(0.8811856703567341,0.47277036112467247,-0.47277036112467247,0.8811856703567341,504.10710748970473,290.4706630893704)" fill="#ffa6d5" filter="url(#bbburst-blur-2)"></use><use xlink:href="#bbburst-shape-10" width="27.279287432434035" opacity="0.57898391145899" transform="matrix(0.7918038328865675,-0.6107754826662091,0.6107754826662091,0.7918038328865675,104.9074883637218,276.79954990585713)" fill="none" stroke="#ff5c58" filter="url(#bbburst-blur-1)"></use><use xlink:href="#bbburst-shape-4" width="27.406839795966786" opacity="0.5096319720635105" transform="matrix(0.9644077045517495,0.2644197031259688,-0.2644197031259688,0.9644077045517495,712.9086373688981,-0.9142920481156693)" fill="#ffa6d5" filter="url(#bbburst-blur-2)"></use><use xlink:href="#bbburst-shape-10" width="26.79005027218292" opacity="0.5152842530159225" transform="matrix(0.9447416687904902,-0.32781577029020403,0.32781577029020403,0.9447416687904902,90.74935138511665,-115.6220467475236)" fill="none" stroke="#2c2891" filter="url(#bbburst-blur-2)"></use><use xlink:href="#bbburst-shape-4" width="26.07085174467523" opacity="0.5336974491457946" transform="matrix(0.7715955873980804,0.6361133935925348,-0.6361133935925348,0.7715955873980804,447.42077432529413,10.690781205948554)" fill="#00a19d" filter="url(#bbburst-blur-2)"></use><use xlink:href="#bbburst-shape-10" width="30.92754057876156" opacity="0.30925578822878996" transform="matrix(1.1319874570359698,-0.5301927924003103,0.5301927924003103,1.1319874570359698,276.3584189884666,247.62798671961315)" fill="none" stroke="#2c2891" filter="url(#bbburst-blur-3)"></use><use xlink:href="#bbburst-shape-6" width="52.53287178267212" opacity="-0.06692197892848073" transform="matrix(1.29097230978542,-1.1814780977095165,1.1814780977095165,1.29097230978542,229.19844509249475,-428.5997249710121)" fill="#00a19d" filter="url(#bbburst-blur-4)"></use><use xlink:href="#bbburst-shape-6" width="12.752301643346662" opacity="0.8379138165013135" transform="matrix(0.9261183659129028,0.37723304775538263,-0.37723304775538263,0.9261183659129028,617.7103946348377,21.53210721063715)" fill="#ffa6d5"></use><use xlink:href="#bbburst-shape-8" width="47.31238689233631" opacity="-0.07817225236664882" transform="matrix(1.6785541719782486,-0.4949301887482878,0.4949301887482878,1.6785541719782486,503.3596904981622,85.37917024618866)" fill="none" stroke="#2c2891" filter="url(#bbburst-blur-4)"></use><use xlink:href="#bbburst-shape-10" width="19.938682953171593" opacity="0.5789625004971861" transform="matrix(0.8614894255152592,0.5077755111517183,-0.5077755111517183,0.8614894255152592,652.4493945720434,-130.05219859786968)" fill="none" stroke="#ffa6d5" filter="url(#bbburst-blur-1)"></use><use xlink:href="#bbburst-shape-8" width="13.353513844156849" opacity="0.9370331594136284" transform="matrix(0.998422823943212,0.05614146978180951,-0.05614146978180951,0.998422823943212,434.52133304460204,21.516968560854252)" fill="none" stroke="#ffbd9b"></use><use xlink:href="#bbburst-shape-6" width="15.031280519288051" opacity="0.7814208281726013" transform="matrix(0.9898928057167259,0.14181760536078844,-0.14181760536078844,0.9898928057167259,360.74517124633684,-39.86086406985356)" fill="#ff5c58"></use><use xlink:href="#bbburst-shape-4" width="47.45085732475075" opacity="0.07224345004519994" transform="matrix(1.7215728704318647,0.314144635149146,-0.314144635149146,1.7215728704318647,129.75383042270167,-76.36961095283732)" fill="#2c2891" filter="url(#bbburst-blur-4)"></use><use xlink:href="#bbburst-shape-6" width="15.050514997461683" opacity="0.8609569878392712" transform="matrix(0.9460833017692148,0.32392342631162185,-0.32392342631162185,0.9460833017692148,505.68887872624947,-41.153398445152106)" fill="#00a19d"></use><use xlink:href="#bbburst-shape-8" width="27.247000946288708" opacity="0.626251548650406" transform="matrix(0.9346601034877818,0.3555425304351209,-0.3555425304351209,0.9346601034877818,529.1087964062335,-146.89416016767717)" fill="none" stroke="#ffa6d5" filter="url(#bbburst-blur-1)"></use><use xlink:href="#bbburst-shape-6" width="34.665701193094066" opacity="0.2966571677191877" transform="matrix(1.1580009100531172,0.47067387044125575,-0.47067387044125575,1.1580009100531172,841.6302852696143,88.04614683104711)" fill="#00a19d" filter="url(#bbburst-blur-3)"></use><use xlink:href="#bbburst-shape-10" width="39.697156904113406" opacity="0.37941040021915196" transform="matrix(0.9337256641772962,0.35798936304961226,-0.35798936304961226,0.9337256641772962,304.8067046093149,191.60317359323244)" fill="none" stroke="#ffa6d5" filter="url(#bbburst-blur-2)"></use><use xlink:href="#bbburst-shape-10" width="25.697427056514442" opacity="0.16995731838299477" transform="matrix(1.2480354362396024,-0.07005390703041146,0.07005390703041146,1.2480354362396024,279.8400681876769,-463.9983238114747)" fill="none" stroke="#ffbd9b" filter="url(#bbburst-blur-3)"></use><use xlink:href="#bbburst-shape-10" width="19.426866149237735" opacity="0.6328940544702547" transform="matrix(0.798795119859949,0.6016031553174648,-0.6016031553174648,0.798795119859949,714.9946333881411,217.98342115723648)" fill="none" stroke="#ffbd9b" filter="url(#bbburst-blur-1)"></use><use xlink:href="#bbburst-shape-10" width="33.120075345730164" opacity="0.3425009530104076" transform="matrix(0.8336480227695462,-0.5522960928093066,0.5522960928093066,0.8336480227695462,-56.66952226192265,-119.97053517121441)" fill="none" stroke="#2c2891" filter="url(#bbburst-blur-2)"></use><use xlink:href="#bbburst-shape-4" width="32.79545609576003" opacity="0.19067223545281575" transform="matrix(1.197076812351885,0.359870956496145,-0.359870956496145,1.197076812351885,888.1219503391433,-101.4114886563583)" fill="#2c2891" filter="url(#bbburst-blur-3)"></use><use xlink:href="#bbburst-shape-8" width="32.84228016117913" opacity="0.4292237853879328" transform="matrix(0.9702543697061861,0.24208770738319535,-0.24208770738319535,0.9702543697061861,356.61284523896774,-216.85181665295877)" fill="none" stroke="#ff5c58" filter="url(#bbburst-blur-2)"></use><use xlink:href="#bbburst-shape-6" width="14.431370083466355" opacity="0.9132095534612997" transform="matrix(0.774579909708456,0.6324760576306744,-0.6324760576306744,0.774579909708456,659.4225403117545,48.44482438433755)" fill="#ff5c58"></use><use xlink:href="#bbburst-shape-10" width="13.726451893413074" opacity="0.8393139079556218" transform="matrix(0.7640438418389265,0.6451643261588582,-0.6451643261588582,0.7640438418389265,580.6642497533236,85.28264350147072)" fill="none" stroke="#2c2891"></use><use xlink:href="#bbburst-shape-4" width="23.781638888549676" opacity="0.46689680232832875" transform="matrix(0.7781457512235355,0.628083744299086,-0.628083744299086,0.7781457512235355,757.0802861857314,-129.18384217409607)" fill="#00a19d" filter="url(#bbburst-blur-2)"></use><use xlink:href="#bbburst-shape-8" width="13.966928518008515" opacity="0.8741309014153305" transform="matrix(0.9166239244909326,0.39975064859339643,-0.39975064859339643,0.9166239244909326,606.9509440534719,49.29671776096495)" fill="none" stroke="#2c2891"></use><use xlink:href="#bbburst-shape-1" width="20.084469966799197" opacity="0.6444841961236527" transform="matrix(0.9026842749589048,-0.43030349724574213,0.43030349724574213,0.9026842749589048,239.33445785309118,201.93285907558356)" fill="#00a19d" filter="url(#bbburst-blur-1)"></use><use xlink:href="#bbburst-shape-8" width="34.08926281951191" opacity="0.33362036969101316" transform="matrix(0.9244980380973007,0.38118680139039685,-0.38118680139039685,0.9244980380973007,507.4294106977785,-274.7335984239645)" fill="none" stroke="#ffa6d5" filter="url(#bbburst-blur-2)"></use><use xlink:href="#bbburst-shape-10" width="35.282770295090415" opacity="0.2531710186166318" transform="matrix(0.8987863205867472,-0.8687250139866682,0.8687250139866682,0.8987863205867472,-111.11955258524378,-246.0300592896986)" fill="none" stroke="#ff5c58" filter="url(#bbburst-blur-3)"></use><use xlink:href="#bbburst-shape-6" width="31.788241941404575" opacity="0.3342362156087625" transform="matrix(0.9716736162414238,0.2363268573402404,-0.2363268573402404,0.9716736162414238,478.47237084331937,307.16776451588333)" fill="#00a19d" filter="url(#bbburst-blur-2)"></use><use xlink:href="#bbburst-shape-8" width="21.081218025267596" opacity="0.6132728359839763" transform="matrix(0.9794473416622383,-0.20170003696274957,0.20170003696274957,0.9794473416622383,475.6381540486916,60.505597029654496)" fill="none" stroke="#ffbd9b" filter="url(#bbburst-blur-1)"></use><use xlink:href="#bbburst-shape-4" width="22.47164393779489" opacity="0.6730126187396135" transform="matrix(0.9467272102544255,-0.32203662736383387,0.32203662736383387,0.9467272102544255,385.71708661445723,-52.42127342840007)" fill="#ffa6d5" filter="url(#bbburst-blur-1)"></use><use xlink:href="#bbburst-shape-6" width="14.455661104019562" opacity="0.8316679619870032" transform="matrix(0.9921588994155861,-0.12498287206834746,0.12498287206834746,0.9921588994155861,325.84437913237394,77.85913072478917)" fill="#2c2891"></use><use xlink:href="#bbburst-shape-8" width="14.69959584088771" opacity="0.8599849380564496" transform="matrix(0.8954789115425456,-0.4451039417738039,0.4451039417738039,0.8954789115425456,267.27099953332765,9.346830780649952)" fill="none" stroke="#00a19d"></use><use xlink:href="#bbburst-shape-6" width="12.661642099463695" opacity="0.9274360069490667" transform="matrix(0.8854563370880935,0.46472257865369154,-0.46472257865369154,0.8854563370880935,571.5633349683435,74.34349318488626)" fill="#00a19d"></use><use xlink:href="#bbburst-shape-8" width="35.6649717358392" opacity="0.18569087283297048" transform="matrix(1.0858352987506916,-0.6192428473442356,0.6192428473442356,1.0858352987506916,361.206876681833,-309.9475642731329)" fill="none" stroke="#2c2891" filter="url(#bbburst-blur-3)"></use><use xlink:href="#bbburst-shape-6" width="33.10749668154327" opacity="0.34543364831476553" transform="matrix(0.9939995214713829,-0.109384419889954,0.109384419889954,0.9939995214713829,68.89871768940817,-111.45838167567524)" fill="#ffbd9b" filter="url(#bbburst-blur-2)"></use><use xlink:href="#bbburst-shape-8" width="21.874673268087893" opacity="0.5591314170473216" transform="matrix(0.7407453588775004,-0.6717859132948852,0.6717859132948852,0.7407453588775004,9.009872949472708,273.2937934899916)" fill="none" stroke="#2c2891" filter="url(#bbburst-blur-1)"></use><use xlink:href="#bbburst-shape-10" width="33.195519264300856" opacity="0.2147421247752045" transform="matrix(1.139119629708366,0.5146906539010347,-0.5146906539010347,1.139119629708366,233.8103679048354,-76.28315237602482)" fill="none" stroke="#ffa6d5" filter="url(#bbburst-blur-3)"></use><use xlink:href="#bbburst-shape-4" width="29.562255379671626" opacity="0.48514774513146874" transform="matrix(0.8927274952317953,0.45059695877487344,-0.45059695877487344,0.8927274952317953,681.292079284911,237.82081444184473)" fill="#ffa6d5" filter="url(#bbburst-blur-2)"></use><use xlink:href="#bbburst-shape-4" width="18.39051191232004" opacity="0.7562245956546115" transform="matrix(0.8749663849535569,0.4841836688709193,-0.4841836688709193,0.8749663849535569,612.4157241743037,151.95176571523643)" fill="#ffa6d5" filter="url(#bbburst-blur-1)"></use><use xlink:href="#bbburst-shape-8" width="14.191461068461146" opacity="0.7833315057890156" transform="matrix(0.9998478434941214,-0.017443906103705723,0.017443906103705723,0.9998478434941214,457.5632273375834,-65.95741305196339)" fill="none" stroke="#ffbd9b"></use><use xlink:href="#bbburst-shape-10" width="23.047055862074107" opacity="0.70973123275229" transform="matrix(0.999511406221258,0.03125618072643239,-0.03125618072643239,0.999511406221258,439.2908170530691,-125.0425309446448)" fill="none" stroke="#ffa6d5" filter="url(#bbburst-blur-1)"></use><use xlink:href="#bbburst-shape-8" width="34.146302377661385" opacity="0.166137422604134" transform="matrix(1.1678413871060762,0.44569776145068957,-0.44569776145068957,1.1678413871060762,300.1535765033181,-347.0386096941485)" fill="none" stroke="#ff5c58" filter="url(#bbburst-blur-3)"></use><use xlink:href="#bbburst-shape-6" width="14.695060510099182" opacity="0.8526564627270256" transform="matrix(0.961026095791674,0.27645766982923864,-0.27645766982923864,0.961026095791674,548.8531068112303,61.94618886508806)" fill="#00a19d"></use><use xlink:href="#bbburst-shape-10" width="17.958650453056546" opacity="0.7783001090233607" transform="matrix(0.939880557205152,-0.341503350185226,0.341503350185226,0.939880557205152,251.29949554218157,-72.58355024177348)" fill="none" stroke="#00a19d"></use><use xlink:href="#bbburst-shape-4" width="37.31149911185514" opacity="0.38189339662123933" transform="matrix(0.9274486465088841,0.3739505423031751,-0.3739505423031751,0.9274486465088841,724.0806265924398,-179.35218001108817)" fill="#ffa6d5" filter="url(#bbburst-blur-2)"></use><use xlink:href="#bbburst-shape-6" width="30.109459127237667" opacity="0.5101162684527212" transform="matrix(0.9877205841268741,-0.1562307514289888,0.1562307514289888,0.9877205841268741,504.1658098778197,-117.81499876695682)" fill="#ff5c58" filter="url(#bbburst-blur-2)"></use><use xlink:href="#bbburst-shape-10" width="37.92257415161828" opacity="0.05714233554192316" transform="matrix(1.647274192080899,0.5907518396960104,-0.5907518396960104,1.647274192080899,382.93151643212053,-631.6006755471492)" fill="none" stroke="#ffa6d5" filter="url(#bbburst-blur-4)"></use><use xlink:href="#bbburst-shape-10" width="37.619431785455774" opacity="0.17890326913815213" transform="matrix(1.2216203197641144,0.2648467374528569,-0.2648467374528569,1.2216203197641144,409.78846068489474,268.5460224302786)" fill="none" stroke="#ffa6d5" filter="url(#bbburst-blur-3)"></use><use xlink:href="#bbburst-shape-4" width="20.746348620866424" opacity="0.7077613829878997" transform="matrix(0.9209312344896412,0.38972510997032944,-0.38972510997032944,0.9209312344896412,415.2296856024197,17.259389401073406)" fill="#ffa6d5" filter="url(#bbburst-blur-1)"></use><use xlink:href="#bbburst-shape-6" width="34.50843275511055" opacity="0.5187294790214005" transform="matrix(0.9958845512799627,-0.09063090268725935,0.09063090268725935,0.9958845512799627,296.0206844634137,-207.3808463754752)" fill="#00a19d" filter="url(#bbburst-blur-2)"></use><use xlink:href="#bbburst-shape-6" width="25.97314189704403" opacity="0.5353801951527757" transform="matrix(0.7933429818369285,-0.608774928171398,0.608774928171398,0.7933429818369285,-28.52847974745393,205.40945331197497)" fill="#ffa6d5" filter="url(#bbburst-blur-2)"></use><use xlink:href="#bbburst-shape-1" width="18.864164814924315" opacity="0.7891934710488209" transform="matrix(0.9777336357204308,-0.20984979766706438,0.20984979766706438,0.9777336357204308,246.58133583192293,84.17283867420065)" fill="#00a19d"></use><use xlink:href="#bbburst-shape-6" width="19.093262319259175" opacity="0.6198498674057629" transform="matrix(0.9995443660761696,-0.030183774538454958,0.030183774538454958,0.9995443660761696,214.83526837301255,50.62895167078449)" fill="#ffbd9b" filter="url(#bbburst-blur-1)"></use><use xlink:href="#bbburst-shape-10" width="15.103712486462706" opacity="0.7543968479274585" transform="matrix(0.8797318883255687,0.47547008808454944,-0.47547008808454944,0.8797318883255687,689.3895339248628,12.707788304093924)" fill="none" stroke="#00a19d" filter="url(#bbburst-blur-1)"></use><use xlink:href="#bbburst-shape-4" width="27.83185314595785" opacity="0.27134836312164445" transform="matrix(0.9811231652455441,0.7745303961876284,-0.7745303961876284,0.9811231652455441,401.759733426926,141.20857227142585)" fill="#00a19d" filter="url(#bbburst-blur-3)"></use><use xlink:href="#bbburst-shape-8" width="39.14379385040925" opacity="0.22433676030641836" transform="matrix(1.241614633213315,0.14454446579016728,-0.14454446579016728,1.241614633213315,712.5304333359761,-309.20408410444617)" fill="none" stroke="#00a19d" filter="url(#bbburst-blur-3)"></use><use xlink:href="#bbburst-shape-4" width="19.097876587421034" opacity="0.7676149010487312" transform="matrix(0.8428025952833995,-0.5382228027346726,0.5382228027346726,0.8428025952833995,114.27492744541064,-15.88441794820244)" fill="#2c2891" filter="url(#bbburst-blur-1)"></use><use xlink:href="#bbburst-shape-6" width="29.484392275971945" opacity="0.43983863857030525" transform="matrix(0.777803353556878,-0.6285077113255447,0.6285077113255447,0.777803353556878,328.20243829217736,262.55905737683236)" fill="#ff5c58" filter="url(#bbburst-blur-2)"></use><use xlink:href="#bbburst-shape-1" width="43.479273753774514" opacity="0.09105090544966776" transform="matrix(1.5585931263538209,-0.7957936079679344,0.7957936079679344,1.5585931263538209,-298.3725317786665,-423.8508439135768)" fill="#2c2891" filter="url(#bbburst-blur-4)"></use><use xlink:href="#bbburst-shape-6" width="28.1318704745799" opacity="0.42116016191286243" transform="matrix(0.9997729431924327,0.021308732020949052,-0.021308732020949052,0.9997729431924327,142.60583567266642,66.2584087777634)" fill="#ff5c58" filter="url(#bbburst-blur-2)"></use><use xlink:href="#bbburst-shape-8" width="31.680511372288525" opacity="0.30243472206767896" transform="matrix(0.9700466201704743,-0.7883587728286148,0.7883587728286148,0.9700466201704743,257.6881296374382,275.5515466706953)" fill="none" stroke="#2c2891" filter="url(#bbburst-blur-3)"></use><use xlink:href="#bbburst-shape-10" width="34.141956733036565" opacity="0.08201527260722796" transform="matrix(1.6603587588407351,0.5529093885446812,-0.5529093885446812,1.6603587588407351,789.9154681675411,-636.6238400717164)" fill="none" stroke="#ffbd9b" filter="url(#bbburst-blur-4)"></use><use xlink:href="#bbburst-shape-6" width="31.763873334430908" opacity="0.3089008532938001" transform="matrix(0.9007149777487418,-0.8667251749309488,0.8667251749309488,0.9007149777487418,155.78155405156286,-234.75798354044406)" fill="#00a19d" filter="url(#bbburst-blur-3)"></use><use xlink:href="#bbburst-shape-8" width="16.723136002015828" opacity="0.7301620041509127" transform="matrix(0.9930908576114333,-0.1173479805049399,0.1173479805049399,0.9930908576114333,323.92954164827154,123.37243978550572)" fill="none" stroke="#ffa6d5" filter="url(#bbburst-blur-1)"></use><use xlink:href="#bbburst-shape-6" width="23.35744906093121" opacity="0.7804691918673023" transform="matrix(0.9462274750584962,-0.323502033138005,0.323502033138005,0.9462274750584962,166.34585672537506,58.036310488844265)" fill="#ff5c58"></use><use xlink:href="#bbburst-shape-10" width="43.01754571373608" opacity="0.19539407869173542" transform="matrix(1.0324999858264197,-0.7045876661342031,0.7045876661342031,1.0324999858264197,446.37723738271006,93.27218143425631)" fill="none" stroke="#ffa6d5" filter="url(#bbburst-blur-3)"></use><use xlink:href="#bbburst-shape-4" width="21.023651956507603" opacity="0.6581607676755756" transform="matrix(0.9368610961323078,0.34970171082476953,-0.34970171082476953,0.9368610961323078,683.7374997956658,15.624698506013033)" fill="#ffa6d5" filter="url(#bbburst-blur-1)"></use><use xlink:href="#bbburst-shape-4" width="39.82747956191314" opacity="0.05209744299668273" transform="matrix(1.7405132824181162,0.1819711892748827,-0.1819711892748827,1.7405132824181162,798.2607866709225,-528.3486184897583)" fill="#2c2891" filter="url(#bbburst-blur-4)"></use><use xlink:href="#bbburst-shape-4" width="39.06466810084413" opacity="0.4461507018087023" transform="matrix(0.999784893568559,-0.020740457856686427,0.020740457856686427,0.999784893568559,401.65314372980833,-246.9563211262138)" fill="#ffa6d5" filter="url(#bbburst-blur-2)"></use><use xlink:href="#bbburst-shape-10" width="33.54909917458086" opacity="0.4955314688705622" transform="matrix(0.7487239917636417,-0.6628818779824337,0.6628818779824337,0.7487239917636417,156.94191008348798,335.98014176059496)" fill="none" stroke="#ff5c58" filter="url(#bbburst-blur-2)"></use><use xlink:href="#bbburst-shape-10" width="23.299843172534466" opacity="0.5853777992391896" transform="matrix(0.8296540509275647,-0.5582778481898434,0.5582778481898434,0.8296540509275647,286.87444034650764,-68.35367728970397)" fill="none" stroke="#ff5c58" filter="url(#bbburst-blur-1)"></use><use xlink:href="#bbburst-shape-4" width="40.82067664301667" opacity="0.1789705076907777" transform="matrix(1.0410550230999869,0.6918847005667099,-0.6918847005667099,1.0410550230999869,297.0417084099398,59.07834770869465)" fill="#ffa6d5" filter="url(#bbburst-blur-3)"></use><use xlink:href="#bbburst-shape-8" width="12.509543052369013" opacity="0.8798755500682663" transform="matrix(0.9988299520047254,0.048360386456665454,-0.048360386456665454,0.9988299520047254,371.63622867772426,-34.51988880567046)" fill="none" stroke="#2c2891"></use><use xlink:href="#bbburst-shape-1" width="17.26270875055438" opacity="0.6995227746789906" transform="matrix(0.867527906904361,0.49738851086664476,-0.49738851086664476,0.867527906904361,671.7384813557289,-60.086728235768305)" fill="#2c2891" filter="url(#bbburst-blur-1)"></use><use xlink:href="#bbburst-shape-6" width="34.43328584092173" opacity="0.24220198780340407" transform="matrix(0.9854337753122901,0.769038539004234,-0.769038539004234,0.9854337753122901,544.5606085320317,300.7185794451878)" fill="#ffbd9b" filter="url(#bbburst-blur-3)"></use><use xlink:href="#bbburst-shape-8" width="22.68292198722356" opacity="0.5687628889079788" transform="matrix(0.9456751647787475,-0.32511303068423575,0.32511303068423575,0.9456751647787475,65.18581430379302,23.16633904377909)" fill="none" stroke="#00a19d" filter="url(#bbburst-blur-1)"></use><use xlink:href="#bbburst-shape-4" width="13.936892919760785" opacity="0.8239556382909721" transform="matrix(0.7680979337202345,-0.6403323857300256,0.6403323857300256,0.7680979337202345,168.48150007177827,23.89598115152461)" fill="#ffa6d5"></use><use xlink:href="#bbburst-shape-1" width="50.51209940705385" opacity="0.18354380137868476" transform="matrix(1.2297966000746279,-0.22383101314358966,0.22383101314358966,1.2297966000746279,627.5858188312316,-203.526255471544)" fill="#ffa6d5" filter="url(#bbburst-blur-3)"></use><use xlink:href="#bbburst-shape-10" width="22.4346142345409" opacity="0.6947016764906114" transform="matrix(0.9248732145783116,-0.38027560657446907,0.38027560657446907,0.9248732145783116,345.0767465390632,119.78531903089862)" fill="none" stroke="#2c2891" filter="url(#bbburst-blur-1)"></use><use xlink:href="#bbburst-shape-6" width="27.406443770489165" opacity="0.5766077522484419" transform="matrix(0.9797957475428712,-0.200000732740923,0.200000732740923,0.9797957475428712,487.38134981872656,-49.2510351853806)" fill="#ffbd9b" filter="url(#bbburst-blur-1)"></use><use xlink:href="#bbburst-shape-6" width="23.014550559814587" opacity="0.6860895833636821" transform="matrix(0.8596774263404938,0.5108372760875862,-0.5108372760875862,0.8596774263404938,524.9427249589478,173.23105820879704)" fill="#00a19d" filter="url(#bbburst-blur-1)"></use><use xlink:href="#bbburst-shape-8" width="28.52357720442069" opacity="0.6691565965756484" transform="matrix(0.9310809901611022,0.3648125405747743,-0.3648125405747743,0.9310809901611022,406.47476720278746,-56.66630616426636)" fill="none" stroke="#ffbd9b" filter="url(#bbburst-blur-1)"></use><use xlink:href="#bbburst-shape-10" width="41.8495816872339" opacity="-0.07934747799644137" transform="matrix(1.735357236093938,0.22590985621793536,-0.22590985621793536,1.735357236093938,108.24814770226666,-639.9424572871474)" fill="none" stroke="#2c2891" filter="url(#bbburst-blur-4)"></use><use xlink:href="#bbburst-shape-10" width="11.412625126583245" opacity="0.9755182013242236" transform="matrix(0.8631347076307981,-0.5049737384093321,0.5049737384093321,0.8631347076307981,186.75443716048522,48.61146634192647)" fill="none" stroke="#00a19d"></use><use xlink:href="#bbburst-shape-8" width="12.299190207831309" opacity="0.9199849394543527" transform="matrix(0.9056923808791527,-0.4239355036057393,0.4239355036057393,0.9056923808791527,189.13057401170582,44.82129742593827)" fill="none" stroke="#ffa6d5"></use><use xlink:href="#bbburst-shape-4" width="36.187059465805056" opacity="0.39927354724569675" transform="matrix(0.85606862304789,-0.5168621795342446,0.5168621795342446,0.85606862304789,-91.98665296194332,49.600085118010725)" fill="#2c2891" filter="url(#bbburst-blur-2)"></use><use xlink:href="#bbburst-shape-1" width="27.91766949272183" opacity="0.1904075720379026" transform="matrix(1.1848987366681116,-0.3981394025241822,0.3981394025241822,1.1848987366681116,284.84397729482544,-427.59622427172104)" fill="#2c2891" filter="url(#bbburst-blur-3)"></use><use xlink:href="#bbburst-shape-4" width="38.611816182403686" opacity="0.09165065374031656" transform="matrix(1.6982922184354765,-0.42226003931405587,0.42226003931405587,1.6982922184354765,399.9846013775443,84.44407018880872)" fill="#ffbd9b" filter="url(#bbburst-blur-4)"></use><use xlink:href="#bbburst-shape-4" width="32.41537701986549" opacity="0.43636080285537515" transform="matrix(0.8698614994882042,0.49329602847391024,-0.49329602847391024,0.8698614994882042,825.7886759163976,118.14930534519664)" fill="#00a19d" filter="url(#bbburst-blur-2)"></use><use xlink:href="#bbburst-shape-6" width="19.309876083668517" opacity="0.6955467533590763" transform="matrix(0.805684108141733,0.5923454379733673,-0.5923454379733673,0.805684108141733,588.999580909633,-58.978364891086926)" fill="#ffa6d5" filter="url(#bbburst-blur-1)"></use><use xlink:href="#bbburst-shape-4" width="38.093786514519266" opacity="0.07395509964543634" transform="matrix(1.2636117915646812,1.2106961799802198,-1.2106961799802198,1.2636117915646812,1218.820949845541,83.72810304160566)" fill="#ffa6d5" filter="url(#bbburst-blur-4)"></use><use xlink:href="#bbburst-shape-10" width="14.152652546786921" opacity="0.9296348482935437" transform="matrix(0.8718150417954991,-0.48983520994219293,0.48983520994219293,0.8718150417954991,228.4244132038145,46.332816696769385)" fill="none" stroke="#00a19d"></use><use xlink:href="#bbburst-shape-8" width="30.725954194552703" opacity="0.1765957605665569" transform="matrix(0.9614024555308771,0.7988775366094604,-0.7988775366094604,0.9614024555308771,766.8170298003962,368.4676889858165)" fill="none" stroke="#ff5c58" filter="url(#bbburst-blur-3)"></use><use xlink:href="#bbburst-shape-4" width="12.884036667112625" opacity="0.7827305517982082" transform="matrix(0.859788331751937,0.5106505895259703,-0.5106505895259703,0.859788331751937,685.1129991536947,98.57286614910981)" fill="#ffa6d5"></use><use xlink:href="#bbburst-shape-10" width="16.915134222438112" opacity="0.7660068249913596" transform="matrix(0.8417703585146993,-0.5398357745889342,0.5398357745889342,0.8417703585146993,237.96477656484083,153.67244958437323)" fill="none" stroke="#2c2891" filter="url(#bbburst-blur-1)"></use><use xlink:href="#bbburst-shape-6" width="24.773770864969784" opacity="0.6871809301510219" transform="matrix(0.8806052138301534,0.4738506699110488,-0.4738506699110488,0.8806052138301534,465.75011541940535,125.99235747139994)" fill="#2c2891" filter="url(#bbburst-blur-1)"></use><use xlink:href="#bbburst-shape-6" width="56.58975370965658" opacity="-0.07626985628339145" transform="matrix(1.2427204910693357,1.2321305860485683,-1.2321305860485683,1.2427204910693357,514.3368026490695,209.6292475472942)" fill="#ffa6d5" filter="url(#bbburst-blur-4)"></use><use xlink:href="#bbburst-shape-4" width="21.813179218172213" opacity="0.6142237227578595" transform="matrix(0.7514549226053228,0.6597844339572042,-0.6597844339572042,0.7514549226053228,560.3021572204327,-52.79776150450036)" fill="#2c2891" filter="url(#bbburst-blur-1)"></use><use xlink:href="#bbburst-shape-4" width="36.48811436456615" opacity="0.18749749194114185" transform="matrix(1.2404598593991314,-0.1541406410376167,0.1541406410376167,1.2404598593991314,59.29802081052816,167.30577488658884)" fill="#ff5c58" filter="url(#bbburst-blur-3)"></use><use xlink:href="#bbburst-shape-10" width="37.66263866295501" opacity="0.16671962745151758" transform="matrix(1.2226636633708523,-0.2599876271528456,0.2599876271528456,1.2226636633708523,-84.37065311728706,-197.77945039617634)" fill="none" stroke="#00a19d" filter="url(#bbburst-blur-3)"></use></svg>